<svg width="120" height="120" viewBox="0 0 120 120" fill="none" xmlns="http://www.w3.org/2000/svg">
<path d="M60.9998 12C40.9998 12 20.9998 14.5 20.9998 32V79.5C20.9998 84.1413 22.8435 88.5925 26.1254 91.8744C29.4073 95.1563 33.8585 97 38.4998 97L30.9998 104.5V107H42.1498L52.1498 97H70.9998L80.9998 107H90.9997V104.5L83.4997 97C88.141 97 92.5922 95.1563 95.8741 91.8744C99.156 88.5925 101 84.1413 101 79.5V32C101 14.5 83.0998 12 60.9998 12ZM38.4998 87C36.5106 87 34.603 86.2098 33.1965 84.8033C31.7899 83.3968 30.9998 81.4891 30.9998 79.5C30.9998 77.5109 31.7899 75.6032 33.1965 74.1967C34.603 72.7902 36.5106 72 38.4998 72C40.4889 72 42.3965 72.7902 43.8031 74.1967C45.2096 75.6032 45.9998 77.5109 45.9998 79.5C45.9998 81.4891 45.2096 83.3968 43.8031 84.8033C42.3965 86.2098 40.4889 87 38.4998 87V87ZM55.9998 52H30.9998V32H55.9998V52ZM65.9998 52V32H90.9997V52H65.9998ZM83.4997 87C81.5106 87 79.603 86.2098 78.1964 84.8033C76.7899 83.3968 75.9998 81.4891 75.9998 79.5C75.9998 77.5109 76.7899 75.6032 78.1964 74.1967C79.603 72.7902 81.5106 72 83.4997 72C85.4889 72 87.3965 72.7902 88.803 74.1967C90.2096 75.6032 90.9997 77.5109 90.9997 79.5C90.9997 81.4891 90.2096 83.3968 88.803 84.8033C87.3965 86.2098 85.4889 87 83.4997 87V87Z" fill="#9C9C9C"/>
</svg>
