<svg width="120" height="120" viewBox="0 0 120 120" fill="none" xmlns="http://www.w3.org/2000/svg">
<path d="M95 84.7V42.5C95 28.55 81.95 25.5 65 25L68.75 17.5H85V10H35V17.5H58.75L55 25C39.3 25.55 25 28.65 25 42.5V84.7C25 91.95 30.95 98 37.95 99.55L30 107.5V110H41.15L51.15 100H70L80 110H90V107.5L82.5 100H82.1C90.55 100 95 93.15 95 84.7ZM60 92.5C58.0109 92.5 56.1032 91.7098 54.6967 90.3033C53.2902 88.8968 52.5 86.9891 52.5 85C52.5 83.0109 53.2902 81.1032 54.6967 79.6967C56.1032 78.2902 58.0109 77.5 60 77.5C61.9891 77.5 63.8968 78.2902 65.3033 79.6967C66.7098 81.1032 67.5 83.0109 67.5 85C67.5 86.9891 66.7098 88.8968 65.3033 90.3033C63.8968 91.7098 61.9891 92.5 60 92.5ZM85 70H35V45H85V70Z" fill="white"/>
</svg>
