<svg width="120" height="120" viewBox="0 0 120 120" fill="none" xmlns="http://www.w3.org/2000/svg">
<g clip-path="url(#clip0)">
<path d="M42.4998 89.9999C43.8258 89.9999 45.0976 90.5267 46.0353 91.4644C46.973 92.402 47.4998 93.6738 47.4998 94.9999C47.4998 96.326 46.973 97.5977 46.0353 98.5354C45.0976 99.4731 43.8258 99.9999 42.4998 99.9999C41.1737 99.9999 39.9019 99.4731 38.9642 98.5354C38.0265 97.5977 37.4998 96.326 37.4998 94.9999C37.4998 93.6738 38.0265 92.402 38.9642 91.4644C39.9019 90.5267 41.1737 89.9999 42.4998 89.9999V89.9999ZM34.9998 59.9999H84.9998V84.9999H34.9998V59.9999ZM77.4998 89.9999C78.8258 89.9999 80.0976 90.5267 81.0353 91.4644C81.973 92.402 82.4998 93.6738 82.4998 94.9999C82.4998 96.326 81.973 97.5977 81.0353 98.5354C80.0976 99.4731 78.8258 99.9999 77.4998 99.9999C76.1737 99.9999 74.9019 99.4731 73.9642 98.5354C73.0265 97.5977 72.4998 96.326 72.4998 94.9999C72.4998 93.6738 73.0265 92.402 73.9642 91.4644C74.9019 90.5267 76.1737 89.9999 77.4998 89.9999V89.9999ZM89.9998 94.3999V59.9999C89.9998 46.8999 76.5998 44.9999 59.9998 44.9999C44.9998 44.9999 29.9998 46.8499 29.9998 59.9999V94.3999C29.9998 97.8742 31.3799 101.206 33.8367 103.663C36.2934 106.12 39.6254 107.5 43.0998 107.5L37.4998 113.1V115H45.8498L53.3498 107.5H67.4998L74.9998 115H82.4998V113.1L76.8498 107.5C84.0998 107.5 89.9998 101.65 89.9998 94.3999ZM88.9998 28.9999C102.35 34.1999 110 45.2499 110 59.2999V125H9.99976V59.2999C9.99976 45.2499 17.6498 34.1999 30.9998 28.9999C39.9998 25.4499 50.6998 24.9999 59.9998 24.9999C69.2998 24.9999 79.9998 25.4499 88.9998 28.9999Z" fill="white"/>
</g>
<defs>
<clipPath id="clip0">
<rect width="120" height="120" fill="white"/>
</clipPath>
</defs>
</svg>
